<?xml version="1.0" encoding="UTF-8" standalone="no"?>
<!-- Created with Inkscape (http://www.inkscape.org/) -->

<svg
   width="97.876877mm"
   height="75.533936mm"
   viewBox="0 0 97.876879 75.533937"
   version="1.1"
   id="svg5"
   inkscape:version="1.1.2 (0a00cf5339, 2022-02-04)"
   sodipodi:docname="balanced_scale.svg"
   inkscape:export-filename="/mnt/Repositories/humanInTheAgeOfAi_presentation/public/balanced_scale.png"
   inkscape:export-xdpi="300"
   inkscape:export-ydpi="300"
   xmlns:inkscape="http://www.inkscape.org/namespaces/inkscape"
   xmlns:sodipodi="http://sodipodi.sourceforge.net/DTD/sodipodi-0.dtd"
   xmlns:xlink="http://www.w3.org/1999/xlink"
   xmlns="http://www.w3.org/2000/svg"
   xmlns:svg="http://www.w3.org/2000/svg">
  <sodipodi:namedview
     id="namedview7"
     pagecolor="#505050"
     bordercolor="#ffffff"
     borderopacity="1"
     inkscape:pageshadow="0"
     inkscape:pageopacity="0"
     inkscape:pagecheckerboard="1"
     inkscape:document-units="mm"
     showgrid="false"
     inkscape:zoom="1.1815085"
     inkscape:cx="-79.982494"
     inkscape:cy="101.14188"
     inkscape:window-width="2496"
     inkscape:window-height="1412"
     inkscape:window-x="64"
     inkscape:window-y="0"
     inkscape:window-maximized="1"
     inkscape:current-layer="g10304"
     fit-margin-top="0"
     fit-margin-left="0"
     fit-margin-right="0"
     fit-margin-bottom="0" />
  <defs
     id="defs2" />
  <g
     inkscape:label="Ebene 1"
     inkscape:groupmode="layer"
     id="layer1"
     transform="translate(-66.13341,-115.58339)">
    <g
       id="g10304"
       transform="matrix(0.06138096,0,0,0.06138096,65.96708,114.80201)">
      <g
         id="g10792">
        <use
           xlink:href="#a"
           transform="matrix(-1,0,0,1,1600,1.31e-7)"
           height="1300"
           width="1640"
           y="0"
           x="0"
           id="use10290" />
        <path
           id="a"
           d="m 800.1,12.73 -27.88,39.41 c -5.43,6.58 -8.688,14.99 -8.688,24.19 0,11.69 5.27,22.14 13.56,29.13 19.43,17.61 9.245,33.57 -12,43.75 -0.466,26.15 0.1347,43.2 -0.4062,54.38 -7.575,5.438 -13.84,12.59 -18.25,20.88 -7.442,0.1629 -14.85,0.8822 -21.69,1.656 -99.9,8.3 -189.6,55.87 -283.4,86.56 -46.83,15.46 -98.09,20.2 -145.7,5.344 -5.684,-1.769 -11.6,-3.54 -17.53,-5.469 l -6.375,-17.66 c 1.331,-0.2149 2.652,-0.5156 3.938,-0.9688 24.8,-3.938 32.85,-36.63 18.22,-55.06 -22.72,-33.42 -73.87,-30.23 -101.3,-4.594 -26.05,19.91 -26.1,60.65 -4.219,83.59 12.93,13.97 28.49,24.19 45.41,31.94 l -187.8,523.5 -43.28,-0.0312 c 12.6,7.428 23.59,15.86 35.19,21.44 102.7,59.45 229,71.43 343.6,41.53 54.4,-15.48 96.39,-33.17 140.6,-62.69 l -42.53,-0.0312 -181.1,-504.3 c 7.882,1.536 15.74,2.913 23.47,4.188 85.08,11.84 165.1,-25.49 243.2,-53.41 58.05,-21.35 118.3,-39.12 180.6,-40.28 v 0.1875 c 4.509,9.086 11.21,16.89 19.44,22.69 v 704.7 c 0,134.3 -126.7,159 -152.8,159 -26.02,0 -50.25,12.18 -50.25,31.97 -53.15,1.597 -116.2,0 -155.9,0 -39.73,0 -69.44,11.42 -69.44,44.34 154.4,1.155 308.9,0.4788 463.3,0.6562 z m -544.9,230.7 c 4.273,-0.008 9.544,0.8304 13.31,2.912 17.35,6.854 13.02,32.31 -2.529,32.87 -0.9868,-2.47 -0.2839,-5.026 -2.938,-5.562 -2.451,-0.4959 -3.351,2.413 -4.031,4.188 -1.287,-0.5383 -2.856,-0.9667 -4.203,-1.86 -16,-11.49 9.684,-27.74 -10.37,-21.95 -20.23,12.98 -5.965,30.52 9.974,38.06 l -3.406,9.469 c -9.686,-5.288 -18.25,-12.12 -24.41,-21.59 -9.652,-18.78 10.08,-36.5 28.59,-36.53 z m 3.406,50.31 1.688,0.5 v 11.78 l -5.25,-2.406 z m 6.188,1.344 2.281,0.1562 5.594,15.56 -7.875,-2.906 z m -27,56.59 c 7.318,3.143 14.85,5.848 22.53,8.219 l 0.2188,513.5 -210,-0.0937 z m 27,9.531 28.47,6.938 181.6,505.4 -209.7,-0.0937 -0.4375,-1.594 z" />
      </g>
    </g>
    <path
       d="m 143.58939,149.83577 c -0.0558,1.8e-4 -0.11147,0.001 -0.16821,0.003 -1.53355,0.0398 -3.41321,0.52853 -5.75424,1.6649 v 12.01714 c 2.74802,-1.42305 4.82578,-1.83027 6.52161,-1.63399 1.51496,0.17529 2.69895,0.82262 3.77867,1.53993 v -11.9972 c -1.04987,-0.87614 -2.26981,-1.48329 -3.88755,-1.58006 -0.15918,-0.009 -0.32297,-0.0147 -0.49032,-0.0138 z m 9.58516,0 c -0.16731,-7e-4 -0.3311,0.004 -0.49036,0.0138 -1.61765,0.0968 -2.83754,0.70392 -3.88746,1.58007 v 11.99719 c 1.07967,-0.7173 2.26371,-1.36464 3.77866,-1.53998 1.69584,-0.19622 3.7736,0.21095 6.52161,1.6341 V 151.5038 c -2.34103,-1.13636 -4.22069,-1.6251 -5.75423,-1.665 -0.0568,-0.001 -0.11242,-0.003 -0.16822,-0.003 z m 0.25866,12.92598 c -0.0469,-1e-4 -0.0938,7e-4 -0.13996,0.001 -0.21741,0.004 -0.42642,0.0183 -0.62878,0.0416 -1.53439,0.17761 -2.69523,0.88761 -3.86765,1.70055 v 0.0138 c -0.29637,-0.0983 -0.58877,-0.11702 -0.87763,-0.0479 -1.15609,-0.79878 -2.30635,-1.4913 -3.81963,-1.66649 -0.253,-0.0292 -0.51731,-0.0436 -0.79424,-0.0416 -1.44884,0.0105 -3.24828,0.48281 -5.63833,1.77447 v 2.10001 c 2.74801,-1.4232 4.82559,-1.83026 6.52152,-1.63399 0.8386,0.097 1.57532,0.33799 2.24969,0.65573 -0.21172,0.29942 -0.42091,0.65514 -0.62743,1.07089 h 5.29778 c -0.26816,-0.40587 -0.5335,-0.76109 -0.79705,-1.06457 0.67812,-0.3211 1.41946,-0.56438 2.2638,-0.66205 1.69588,-0.19622 3.77351,0.21084 6.52161,1.63409 v -2.10001 c -2.40389,-1.29912 -4.21065,-1.77082 -5.66379,-1.7761 z"
       fill="#ffffff"
       fill-opacity="1"
       id="path10554"
       style="fill:#d1cfc7;fill-opacity:1;stroke-width:0.0472528" />
    <path
       d="m 82.216247,145.24513 c 1.33754,1.07423 5.35018,3.2227 8.02527,3.2227 v 4.29695 c 0,4.29693 -4.01264,10.74234 -8.02527,13.96504 -4.01264,-3.2227 -8.025278,-9.66811 -8.025278,-13.96504 v -4.29695 c 2.675088,0 6.687728,-2.14847 8.025278,-3.2227 z"
       fill="#ffffff"
       fill-opacity="1"
       id="path10646"
       style="fill:#d1cfc7;fill-opacity:1;stroke-width:0.048936" />
  </g>
</svg>
