<svg version="1.1" id="Layer_1" xmlns="http://www.w3.org/2000/svg" xmlns:xlink="http://www.w3.org/1999/xlink" x="0px" y="0px" viewBox="0 0 1632.503 1659.714" enable-background="new 0 0 1632.503 1659.714" xml:space="preserve">
<g>
    <g>
        <path fill="none" stroke="#000000" stroke-width="3" stroke-miterlimit="10" d="M978.097,60.625    c-0.137,0.049-0.284,0.098-0.421,0.147C977.784,60.743,977.931,60.684,978.097,60.625z"/>
        <path fill="none" stroke="#000000" stroke-width="3" stroke-miterlimit="10" d="M1000.003,1612.714    c9.084,0.714,18.549,0.647,27.691,0H1000.003z"/>
        <path fill="none" stroke="#000000" stroke-width="3" stroke-miterlimit="10" d="M1493.12,452.913l15.756,119.828    C1514.759,537.657,1513.046,489.098,1493.12,452.913z"/>
        <path fill="none" stroke="#000000" stroke-width="3" stroke-miterlimit="10" d="M1499.851,613.336    c1.038-6.414,6.319-24.46,9.025-40.595l-15.756-119.828c-12.505-22.708-26.958-34.3-47.685-51.449l-65.681,115.104    L1499.851,613.336z"/>
        <path fill="none" stroke="#000000" stroke-width="3" stroke-miterlimit="10" d="M1407.239,1383.959    c4.74-3.181,14.773-4.693,20.954-6.86c45.644-16.044,57.784-46.506,75.604-73.057c13.564-20.192,22.333-38.896,24.987-60.393    l-75.561-15.908L1407.239,1383.959z"/>
        <path fill="none" stroke="#000000" stroke-width="3" stroke-miterlimit="10" d="M1528.784,1243.648    c4.69-37.994-13.326-81.562-12.762-89.1c0.255-3.481,1.513-6.99,2.92-10.533l-65.72,83.725L1528.784,1243.648z"/>
        <path fill="none" stroke="#000000" stroke-width="3" stroke-miterlimit="10" d="M1570.38,879.815    c6.825-5.135,12.07-10.684,15.613-17.248l-37.142-125.233c-2.922-1.755-5.862-3.476-8.829-5.149    c0.472-5.864,0.888-12.275,1.257-20.384l-22.671-76.441c-1.566-1.682-3.262-3.321-5.114-4.939l-125.903,215.285L1570.38,879.815z"/>
        <path fill="none" stroke="#000000" stroke-width="3" stroke-miterlimit="10" d="M1573.504,772.983    c-6.426-13.479-15.125-23.627-24.333-35.461c-0.106-0.064-0.214-0.126-0.32-0.19l37.142,125.233    C1599.11,838.263,1585.087,797.277,1573.504,772.983z"/>
        <path fill="none" stroke="#000000" stroke-width="3" stroke-miterlimit="10" d="M1532.352,657.335    c-3.799-8.757-7.874-15.671-13.744-21.975l22.671,76.441C1542.416,686.832,1542.201,680.051,1532.352,657.335z"/>
        <path fill="none" stroke="#000000" stroke-width="3" stroke-miterlimit="10" d="M1387.591,845.706l125.903-215.285    c-0.569-0.497-1.151-0.993-1.751-1.487l-143.744,91.387L1387.591,845.706z"/>
        <path fill="none" stroke="#000000" stroke-width="3" stroke-miterlimit="10" d="M1580.727,1030.681    c26.103-47.646,9.002-99.819-25.326-141.383c5.626-3.094,10.621-6.205,14.979-9.484l-182.789-34.109L1580.727,1030.681z"/>
        <path fill="none" stroke="#000000" stroke-width="3" stroke-miterlimit="10" d="M1363.506,244.048l43.682,37.595    C1399.922,260.426,1386.199,246.434,1363.506,244.048z"/>
        <path fill="none" stroke="#000000" stroke-width="3" stroke-miterlimit="10" d="M1453.223,1227.741l65.72-83.725    c1.733-4.364,3.69-8.779,4.28-13.261c1.312-10.021-5.897-25.214-2.851-33.698c3.394-9.506,18.282-17.192,38.687-38.641    l-214.569,74.306L1453.223,1227.741z"/>
        <path fill="none" stroke="#000000" stroke-width="3" stroke-miterlimit="10" d="M1344.49,1132.722l214.569-74.306    c9.418-9.9,15.935-17.269,21.668-27.735l-193.136-184.975L1344.49,1132.722z"/>
        <path fill="none" stroke="#000000" stroke-width="3" stroke-miterlimit="10" d="M1367.999,720.32l143.744-91.387    c-10.038-8.267-13.173-7.678-11.892-15.597l-120.097-96.769L1367.999,720.32z"/>
        <path fill="none" stroke="#000000" stroke-width="3" stroke-miterlimit="10" d="M1279.997,99.552l57.207,101.701    C1342.431,171.253,1318.757,123.013,1279.997,99.552z"/>
        <path fill="none" stroke="#000000" stroke-width="3" stroke-miterlimit="10" d="M1371.006,1479.212l-31.303,24.958    C1354.146,1497.403,1362.165,1492.661,1371.006,1479.212z"/>
        <path fill="none" stroke="#000000" stroke-width="3" stroke-miterlimit="10" d="M1379.754,516.568l65.681-115.104    c-9.359-7.743-17.547-13.614-23.395-29.821l-150.039,75.375L1379.754,516.568z"/>
        <path fill="none" stroke="#000000" stroke-width="3" stroke-miterlimit="10" d="M1422.04,371.643    c-9.41-26.077-4.014-58.353-14.852-90l-43.682-37.595c-1.804-0.19-3.752-0.26-5.769-0.293l-85.736,203.263L1422.04,371.643z"/>
        <path fill="none" stroke="#000000" stroke-width="3" stroke-miterlimit="10" d="M1265.445,1524.841    c53.195,0.186,81.227-26.228,105.561-45.629c1.474-2.242,2.832-4.548,4.105-6.902l-96.254,23.834L1265.445,1524.841z"/>
        <polygon fill="none" stroke="#000000" stroke-width="3" stroke-miterlimit="10" points="1344.49,1132.722 1387.591,845.706     1179.921,946.602   "/>
        <path fill="none" stroke="#000000" stroke-width="3" stroke-miterlimit="10" d="M1149.554,1234.598l228.362,232.217    c4.454-9.26,8.03-19.01,12.495-28.277c7.411-15.383,3.748-45.802,16.828-54.579l45.984-156.218L1149.554,1234.598z"/>
        <polygon fill="none" stroke="#000000" stroke-width="3" stroke-miterlimit="10" points="1453.223,1227.741 1344.49,1132.722     1149.554,1234.598   "/>
        <path fill="none" stroke="#000000" stroke-width="3" stroke-miterlimit="10" d="M1278.858,1496.145l96.254-23.834    c0.978-1.808,1.912-3.641,2.805-5.496l-228.362-232.217L1278.858,1496.145z"/>
        <polygon fill="none" stroke="#000000" stroke-width="3" stroke-miterlimit="10" points="1367.999,720.32 1379.754,516.568     1159.349,486.201   "/>
        <polygon fill="none" stroke="#000000" stroke-width="3" stroke-miterlimit="10" points="1379.754,516.568 1272.001,447.018     1159.349,486.201   "/>
        <polygon fill="none" stroke="#000000" stroke-width="3" stroke-miterlimit="10" points="1387.591,845.706 1367.999,720.32     1180.9,808.482   "/>
        <polygon fill="none" stroke="#000000" stroke-width="3" stroke-miterlimit="10" points="1179.921,946.602 1387.591,845.706     1180.9,808.482   "/>
        <polygon fill="none" stroke="#000000" stroke-width="3" stroke-miterlimit="10" points="1180.9,808.482 1367.999,720.32     1159.349,486.201   "/>
        <polygon fill="none" stroke="#000000" stroke-width="3" stroke-miterlimit="10" points="1149.554,1234.598 1112.33,1448.145     1278.858,1496.145   "/>
        <polygon fill="none" stroke="#000000" stroke-width="3" stroke-miterlimit="10" points="1149.554,1234.598 1344.49,1132.722     1156.411,1169.946   "/>
        <path fill="none" stroke="#000000" stroke-width="3" stroke-miterlimit="10" d="M1272.001,447.018l85.736-203.263    c-1.603-0.026-3.248-0.033-4.897-0.06l-246.388,130.834L1272.001,447.018z"/>
        <polygon fill="none" stroke="#000000" stroke-width="3" stroke-miterlimit="10" points="1156.411,1169.946 1344.49,1132.722     1179.921,946.602   "/>
        <path fill="none" stroke="#000000" stroke-width="3" stroke-miterlimit="10" d="M1336.954,240.604    c-11.905-7.487-1.927-26.857,0.25-39.351l-57.207-101.701c-0.103-0.062-0.203-0.131-0.307-0.193l-234.952,144.887    L1336.954,240.604z"/>
        <path fill="none" stroke="#000000" stroke-width="3" stroke-miterlimit="10" d="M1106.452,374.529l246.388-130.834    c-5.85-0.095-11.729-0.477-15.887-3.091l-292.215,3.641L1106.452,374.529z"/>
        <polygon fill="none" stroke="#000000" stroke-width="3" stroke-miterlimit="10" points="1179.921,946.602 1120.166,1150.354     1156.411,1169.946   "/>
        <polygon fill="none" stroke="#000000" stroke-width="3" stroke-miterlimit="10" points="1159.349,486.201 1067.269,496.976     1180.9,808.482   "/>
        <path fill="none" stroke="#000000" stroke-width="3" stroke-miterlimit="10" d="M1279.691,99.359    c-0.128-0.077-0.258-0.146-0.386-0.223l-57.97-14.337c-13.22,0.602-26.949,3.535-40.974,8.906    c-9.345,3.585-25.126,17.632-35.049,15.82c-9.179-1.675-18.142-16.565-26.576-21.423c-8.347-4.81-17.488-9.252-26.969-12.809    l-47.028,168.952L1279.691,99.359z"/>
        <path fill="none" stroke="#000000" stroke-width="3" stroke-miterlimit="10" d="M1221.334,84.8l57.97,14.337    C1261.828,88.738,1242.219,83.848,1221.334,84.8z"/>
        <polygon fill="none" stroke="#000000" stroke-width="3" stroke-miterlimit="10" points="1272.001,447.018 1106.452,374.529     1159.349,486.201   "/>
        <path fill="none" stroke="#000000" stroke-width="3" stroke-miterlimit="10" d="M1112.33,1448.145l65.501,72.722    c17.575-17.859,41.993,3.814,87.614,3.974l13.413-28.697L1112.33,1448.145z"/>
        <polygon fill="none" stroke="#000000" stroke-width="3" stroke-miterlimit="10" points="1067.269,496.976 934.047,566.526     1180.9,808.482   "/>
        <polygon fill="none" stroke="#000000" stroke-width="3" stroke-miterlimit="10" points="934.047,566.526 970.291,813.38     1180.9,808.482   "/>
        <path fill="none" stroke="#000000" stroke-width="3" stroke-miterlimit="10" d="M1056.526,1608.404    c19.016-5.012,40.086-15.684,56.46-24.302c27.05-14.218,20.568-20.555,52.809-49.958c3.607-3.299,7.835-9.007,12.037-13.277    l-65.501-72.722L1056.526,1608.404z"/>
        <polygon fill="none" stroke="#000000" stroke-width="3" stroke-miterlimit="10" points="1180.9,808.482 987.924,852.563     1179.921,946.602   "/>
        <polygon fill="none" stroke="#000000" stroke-width="3" stroke-miterlimit="10" points="982.046,1235.577 1112.33,1448.145     1149.554,1234.598   "/>
        <polygon fill="none" stroke="#000000" stroke-width="3" stroke-miterlimit="10" points="987.924,852.563 1120.166,1150.354     1179.921,946.602   "/>
        <polygon fill="none" stroke="#000000" stroke-width="3" stroke-miterlimit="10" points="970.291,813.38 987.924,852.563     1180.9,808.482   "/>
        <path fill="none" stroke="#000000" stroke-width="3" stroke-miterlimit="10" d="M987.924,852.563L870.04,1158.116    c-0.155,3.816-0.341,7.66-0.515,11.518l250.641-19.28L987.924,852.563z"/>
        <polygon fill="none" stroke="#000000" stroke-width="3" stroke-miterlimit="10" points="1156.411,1169.946 1120.166,1150.354     1149.554,1234.598   "/>
        <polygon fill="none" stroke="#000000" stroke-width="3" stroke-miterlimit="10" points="1106.452,374.529 1067.269,496.976     1159.349,486.201   "/>
        <polygon fill="none" stroke="#000000" stroke-width="3" stroke-miterlimit="10" points="914.455,1303.168 1112.33,1448.145     982.046,1235.577   "/>
        <path fill="none" stroke="#000000" stroke-width="3" stroke-miterlimit="10" d="M1056.526,1608.404l55.804-160.259    l-202.772,83.264l73.116,78.784C1001.434,1614.387,1035.998,1613.815,1056.526,1608.404z"/>
        <polygon fill="none" stroke="#000000" stroke-width="3" stroke-miterlimit="10" points="1120.166,1150.354 982.046,1235.577     1149.554,1234.598   "/>
        <path fill="none" stroke="#000000" stroke-width="3" stroke-miterlimit="10" d="M934.047,566.526l-17.435,42.715    c3.05,2.008,6.281,3.491,9.685,4.316c-2.834,7.79-35.078,69.223-41.17,107.635l85.164,92.188L934.047,566.526z"/>
        <path fill="none" stroke="#000000" stroke-width="3" stroke-miterlimit="10" d="M990.998,46.999    c-31.029-1.687-25.257-0.655-37.142,6.726l76.671,0.257C1018.248,47.827,1004.178,47.719,990.998,46.999z"/>
        <path fill="none" stroke="#000000" stroke-width="3" stroke-miterlimit="10" d="M1030.527,53.982l-76.671-0.257    c-22.999,14.283-52.816,15.574-61.026,58.87l160.241-45.683C1043.191,65.715,1038.183,57.819,1030.527,53.982z"/>
        <path fill="none" stroke="#000000" stroke-width="3" stroke-miterlimit="10" d="M977.676,60.772    c0.137-0.049,0.284-0.098,0.421-0.147C977.931,60.684,977.784,60.743,977.676,60.772z"/>
        <path fill="none" stroke="#000000" stroke-width="3" stroke-miterlimit="10" d="M1091.767,75.293    c-20.851-7.822-33.316-7.729-38.695-8.381L892.83,112.595c-1.039,5.48-1.754,11.391-2.115,17.46l154.024,114.19L1091.767,75.293z"/>
        <path fill="none" stroke="#000000" stroke-width="3" stroke-miterlimit="10" d="M1120.166,1150.354l-250.641,19.28    c-0.038,0.843-0.076,1.685-0.111,2.529l112.632,63.414L1120.166,1150.354z"/>
        <polygon fill="none" stroke="#000000" stroke-width="3" stroke-miterlimit="10" points="909.557,1531.409 1112.33,1448.145     914.455,1303.168   "/>
        <path fill="none" stroke="#000000" stroke-width="3" stroke-miterlimit="10" d="M1106.452,374.529l-223.816-0.711    c-3.35,20.736,4.932,17.636,9.973,23.193c5.778,6.386,4.36,5.757,1.224,20.499l173.435,79.465L1106.452,374.529z"/>
        <path fill="none" stroke="#000000" stroke-width="3" stroke-miterlimit="10" d="M1044.739,244.245L889.502,325.56    c5.745,6.441,11.95,11.882,17.096,13.334c-15.028,11.047-21.119,17.332-23.962,34.925l223.816,0.711L1044.739,244.245z"/>
        <path fill="none" stroke="#000000" stroke-width="3" stroke-miterlimit="10" d="M881.798,857.791    c1.079,26.38,10.625,40.078,29.365,60.317c-20.744,18.864-47.627,70.444-22.628,104.991c7.827,10.795,8.268,11.5,3.732,23.941    c-23.159,63.697-21.809,100.795-22.227,111.077l117.883-305.554L881.798,857.791z"/>
        <path fill="none" stroke="#000000" stroke-width="3" stroke-miterlimit="10" d="M1067.269,496.976l-173.435-79.465    c-7.857,36.922-11.331,29.323-11.989,75.03l52.202,73.985L1067.269,496.976z"/>
        <path fill="none" stroke="#000000" stroke-width="3" stroke-miterlimit="10" d="M901.448,1567.904    c9.278,8.633,26.17,17.976,35.331,20.969c2.361,0.764,9.659-1.744,10.393-1.381c10.375,5.107,9.048,16.788,35.502,22.702    l-73.116-78.784L901.448,1567.904z"/>
        <path fill="none" stroke="#000000" stroke-width="3" stroke-miterlimit="10" d="M890.715,130.056    c-1.028,17.265,0.797,35.794,6.107,49.216c3.81,9.639,9.766,16.467,6.965,25.156c-5.017,15.549-50.782,60.397-30.377,98.673    c2.903,5.458,9.162,14.688,16.092,22.46l155.237-81.314L890.715,130.056z"/>
        <path fill="none" stroke="#000000" stroke-width="3" stroke-miterlimit="10" d="M970.291,813.38l-88.214,23.842    c-0.314,6.857-0.557,13.784-0.279,20.569l106.126-5.228L970.291,813.38z"/>
        <path fill="none" stroke="#000000" stroke-width="3" stroke-miterlimit="10" d="M982.046,1235.577l-112.632-63.414    c-0.109,2.588-0.199,5.179-0.266,7.771l45.307,123.234L982.046,1235.577z"/>
        <path fill="none" stroke="#000000" stroke-width="3" stroke-miterlimit="10" d="M885.128,721.192    c-4.025,25.385-1.339,78.687-3.051,116.029l88.214-23.842L885.128,721.192z"/>
        <path fill="none" stroke="#000000" stroke-width="3" stroke-miterlimit="10" d="M914.455,1303.168l-47.129,30.495    c-0.38,38.776,26.275,104.233,22.237,126.219c-0.294,1.587-5.975,5.358-6.622,7.19c-1.606,4.545-0.519,7.112-1.126,11.412    c-0.383,2.732-5.995,24.626-1.811,48.138l29.554,4.787L914.455,1303.168z"/>
        <path fill="none" stroke="#000000" stroke-width="3" stroke-miterlimit="10" d="M890.29,570.795    c5.831,15.678,14.771,30.84,26.322,38.446l17.435-42.715L890.29,570.795z"/>
        <path fill="none" stroke="#000000" stroke-width="3" stroke-miterlimit="10" d="M881.845,492.542    c-0.606,42.079,0.619,57.21,8.445,78.253l43.757-4.269L881.845,492.542z"/>
        <path fill="none" stroke="#000000" stroke-width="3" stroke-miterlimit="10" d="M885.793,1545.628    c3.659,8.142,8.898,15.989,15.655,22.276l8.11-36.494L885.793,1545.628z"/>
        <path fill="none" stroke="#000000" stroke-width="3" stroke-miterlimit="10" d="M869.149,1179.934    c-1.893,72.973,36.112,69.51,16.919,101.649l28.387,21.585L869.149,1179.934z"/>
        <path fill="none" stroke="#000000" stroke-width="3" stroke-miterlimit="10" d="M886.068,1281.583    c-7.81,13.079-13.769,17.045-16.857,31.792l45.245-10.208L886.068,1281.583z"/>
        <path fill="none" stroke="#000000" stroke-width="3" stroke-miterlimit="10" d="M869.211,1313.376    c-1.369,6.539-1.82,13.556-1.884,20.288l47.129-30.495L869.211,1313.376z"/>
        <path fill="none" stroke="#000000" stroke-width="3" stroke-miterlimit="10" d="M880.004,1526.623    c1.162,6.53,3.04,12.889,5.789,19.006l23.764-14.219L880.004,1526.623z"/>
        <path fill="none" stroke="#000000" stroke-width="3" stroke-miterlimit="10" d="M659.284,60.792    c-0.157-0.059-0.314-0.108-0.47-0.167C659.01,60.694,659.167,60.753,659.284,60.792z"/>
        <path fill="none" stroke="#000000" stroke-width="3" stroke-miterlimit="10" d="M609.222,1612.714    c9.142,0.647,18.607,0.714,27.691,0H609.222z"/>
        <path fill="none" stroke="#000000" stroke-width="3" stroke-miterlimit="10" d="M753.654,389.189    c2.132-4.411,1.452-10.303,0.598-15.529l-34.732-0.11L753.654,389.189z"/>
        <path fill="none" stroke="#000000" stroke-width="3" stroke-miterlimit="10" d="M754.252,373.66    c-1.349-8.254-3.004-12.364-4.866-15.754L719.52,373.55L754.252,373.66z"/>
        <path fill="none" stroke="#000000" stroke-width="3" stroke-miterlimit="10" d="M750.043,1020.724    c21.707-31.776-2.399-82.714-24.284-102.606c17.982-19.439,27.738-33.108,29.234-57.941l-44.289,2.182L750.043,1020.724z"/>
        <path fill="none" stroke="#000000" stroke-width="3" stroke-miterlimit="10" d="M740.394,403.135    c0.265-1.786,1.383-3.326,3.917-6.123c3.85-4.254,6.995-2.969,9.342-7.823l-34.134-15.64L740.394,403.135z"/>
        <path fill="none" stroke="#000000" stroke-width="3" stroke-miterlimit="10" d="M749.386,357.905    c-4.358-7.936-11.298-13.299-19.062-19.012c5.551-1.567,58.961-36.887,27.474-93.427L719.52,373.55L749.386,357.905z"/>
        <path fill="none" stroke="#000000" stroke-width="3" stroke-miterlimit="10" d="M719.52,373.55l38.277-128.082    c-28.959-52.003-30.516-33.796-17.707-66.196c2.28-5.762,3.911-12.471,4.956-19.612l-69.607,57.157L719.52,373.55z"/>
        <path fill="none" stroke="#000000" stroke-width="3" stroke-miterlimit="10" d="M754.992,860.177    c0.196-3.253,0.26-6.545,0.239-9.853l-44.528,12.035L754.992,860.177z"/>
        <path fill="none" stroke="#000000" stroke-width="3" stroke-miterlimit="10" d="M755.231,850.324    c-0.126-20.072-1.235-4.767-0.993-64.646l-43.535,76.681L755.231,850.324z"/>
        <path fill="none" stroke="#000000" stroke-width="3" stroke-miterlimit="10" d="M623.521,1141.538l143.724,24.958    c-0.827-17.793,0.775-55.281-22.6-119.456c-5.131-14.104-3.508-13.278,5.398-26.316l-39.339-158.365L623.521,1141.538z"/>
        <path fill="none" stroke="#000000" stroke-width="3" stroke-miterlimit="10" d="M757.893,1519.537    c2.105-20.774-2.341-37.873-2.787-41.053c-0.607-4.3,0.47-6.857-1.126-11.402c-0.656-1.842-6.338-5.613-6.632-7.2    c-3.585-19.518,20.509-88.706,21.982-113.517l-216.338,139.984L757.893,1519.537z"/>
        <path fill="none" stroke="#000000" stroke-width="3" stroke-miterlimit="10" d="M735.65,670.016    c-3.451-8.354-6.695-16.756-10.244-25.103c-4.408-10.354-11.01-20.963-14.792-31.356c14.466-3.505,25.815-18.865,33.34-36.131    l-129.249,12.61L735.65,670.016z"/>
        <path fill="none" stroke="#000000" stroke-width="3" stroke-miterlimit="10" d="M614.705,590.036l129.249-12.61    c6.482-14.874,10.127-31.163,10.477-42.51c0.774-25.4,1.646-53.896-1.822-79.13c-0.316-2.302-12.883-48.141-12.214-52.652    L719.52,373.55L614.705,590.036z"/>
        <path fill="none" stroke="#000000" stroke-width="3" stroke-miterlimit="10" d="M754.841,1241.389    c12.788-23.698,14.146-37.4,12.404-74.893l-143.724-24.958L754.841,1241.389z"/>
        <path fill="none" stroke="#000000" stroke-width="3" stroke-miterlimit="10" d="M514.788,1375.657l253.786-57.256    c-3.73-26.839-24.457-36.528-22.92-53.62c0.665-7.455,4.938-15.517,9.187-23.391l-131.32-99.851L514.788,1375.657z"/>
        <path fill="none" stroke="#000000" stroke-width="3" stroke-miterlimit="10" d="M552.991,1486.349l216.338-139.984    c0.346-5.835,0.581-18.34-0.756-27.965l-253.786,57.256L552.991,1486.349z"/>
        <path fill="none" stroke="#000000" stroke-width="3" stroke-miterlimit="10" d="M689.739,1587.492    c0.745-0.363,8.032,2.145,10.393,1.381c32.272-10.545,54.173-33.937,57.761-69.336l-204.902-33.188l29.164,122.489    c19.313,4.76,35.015,3.876,54.758,3.876C680.539,1609.284,678.078,1593.241,689.739,1587.492z"/>
        <path fill="none" stroke="#000000" stroke-width="3" stroke-miterlimit="10" d="M710.703,862.358l43.535-76.681    c0.078-19.338-0.057-38.733-1.675-57.883l-141.776,55.218L710.703,862.358z"/>
        <polygon fill="none" stroke="#000000" stroke-width="3" stroke-miterlimit="10" points="614.705,590.036 719.52,373.55     650.949,369.631   "/>
        <path fill="none" stroke="#000000" stroke-width="3" stroke-miterlimit="10" d="M745.046,159.66    c4.406-30.105,1.217-68.39-24.121-86.167l-45.486,143.324L745.046,159.66z"/>
        <path fill="none" stroke="#000000" stroke-width="3" stroke-miterlimit="10" d="M610.786,783.013l141.776-55.218    c-2.15-25.401-16.507-56.795-16.913-57.778l-120.945-79.98L610.786,783.013z"/>
        <polygon fill="none" stroke="#000000" stroke-width="3" stroke-miterlimit="10" points="623.521,1141.538 710.703,862.358     621.562,848.644   "/>
        <polygon fill="none" stroke="#000000" stroke-width="3" stroke-miterlimit="10" points="719.52,373.55 675.439,216.817     650.949,369.631   "/>
        <polygon fill="none" stroke="#000000" stroke-width="3" stroke-miterlimit="10" points="710.703,862.358 610.786,783.013     621.562,848.644   "/>
        <path fill="none" stroke="#000000" stroke-width="3" stroke-miterlimit="10" d="M720.925,73.493    c-13.561-9.514-31.076-13.837-43.371-23.613c-8.488-6.294-21.536-3.378-35.453-2.683l33.339,169.621L720.925,73.493z"/>
        <path fill="none" stroke="#000000" stroke-width="3" stroke-miterlimit="10" d="M658.814,60.625    c0.157,0.059,0.313,0.108,0.47,0.167C659.167,60.753,659.01,60.694,658.814,60.625z"/>
        <path fill="none" stroke="#000000" stroke-width="3" stroke-miterlimit="10" d="M675.439,216.817L642.1,47.197    c-53.245,2.662-34.862,17.709-64.15,20.247c-20.62,1.783-41.985,10.413-59.764,20.659c-8.434,4.859-17.407,19.748-26.586,21.423    c-9.913,1.812-25.704-12.235-35.039-15.82c-25.857-9.902-50.717-11.548-73.217-5.487l-30.186,19.865L675.439,216.817z"/>
        <polygon fill="none" stroke="#000000" stroke-width="3" stroke-miterlimit="10" points="398.218,862.358 623.521,1141.538     621.562,848.644   "/>
        <polygon fill="none" stroke="#000000" stroke-width="3" stroke-miterlimit="10" points="514.788,1375.657 623.521,1141.538     420.749,1262.026   "/>
        <polygon fill="none" stroke="#000000" stroke-width="3" stroke-miterlimit="10" points="484.421,572.404 614.705,590.036     650.949,369.631   "/>
        <polygon fill="none" stroke="#000000" stroke-width="3" stroke-miterlimit="10" points="675.439,216.817 350.219,310.857     650.949,369.631   "/>
        <polygon fill="none" stroke="#000000" stroke-width="3" stroke-miterlimit="10" points="353.158,108.084 350.219,310.857     675.439,216.817   "/>
        <polygon fill="none" stroke="#000000" stroke-width="3" stroke-miterlimit="10" points="610.786,783.013 614.705,590.036     484.421,572.404   "/>
        <polygon fill="none" stroke="#000000" stroke-width="3" stroke-miterlimit="10" points="366.872,1144.477 623.521,1141.538     398.218,862.358   "/>
        <polygon fill="none" stroke="#000000" stroke-width="3" stroke-miterlimit="10" points="650.949,369.631 350.219,310.857     484.421,572.404   "/>
        <polygon fill="none" stroke="#000000" stroke-width="3" stroke-miterlimit="10" points="343.362,791.829 610.786,783.013     484.421,572.404   "/>
        <path fill="none" stroke="#000000" stroke-width="3" stroke-miterlimit="10" d="M383.344,88.219    c-10.949,2.95-21.333,7.738-31.006,14.279l0.82,5.586L383.344,88.219z"/>
        <polygon fill="none" stroke="#000000" stroke-width="3" stroke-miterlimit="10" points="420.749,1262.026 623.521,1141.538     366.872,1144.477   "/>
        <polygon fill="none" stroke="#000000" stroke-width="3" stroke-miterlimit="10" points="621.562,848.644 610.786,783.013     398.218,862.358   "/>
        <path fill="none" stroke="#000000" stroke-width="3" stroke-miterlimit="10" d="M474.266,1536.986    c26.816,24.154,22.407,32.782,49.66,47.116c16.892,8.886,38.76,19.938,58.229,24.736l-29.164-122.489L474.266,1536.986z"/>
        <polygon fill="none" stroke="#000000" stroke-width="3" stroke-miterlimit="10" points="398.218,862.358 610.786,783.013     343.362,791.829   "/>
        <path fill="none" stroke="#000000" stroke-width="3" stroke-miterlimit="10" d="M467.768,1404.064l-61.645,116.684    c55.67-13.736,44.264-5.274,68.143,16.237l78.725-50.637L467.768,1404.064z"/>
        <polygon fill="none" stroke="#000000" stroke-width="3" stroke-miterlimit="10" points="467.768,1404.064 552.991,1486.349     514.788,1375.657   "/>
        <polygon fill="none" stroke="#000000" stroke-width="3" stroke-miterlimit="10" points="350.219,310.857 267.935,371.59     484.421,572.404   "/>
        <polygon fill="none" stroke="#000000" stroke-width="3" stroke-miterlimit="10" points="484.421,572.404 249.323,674.28     343.362,791.829   "/>
        <polygon fill="none" stroke="#000000" stroke-width="3" stroke-miterlimit="10" points="420.749,1262.026 467.768,1404.064     514.788,1375.657   "/>
        <path fill="none" stroke="#000000" stroke-width="3" stroke-miterlimit="10" d="M353.158,108.084l-52.843,72.312    c-4.569,27.794,6.606,34.852,5.333,49.833c-0.429,5.064-2.441,8.204-5.365,10.169l49.937,70.459L353.158,108.084z"/>
        <polygon fill="none" stroke="#000000" stroke-width="3" stroke-miterlimit="10" points="398.218,862.358 221.894,987.744     366.872,1144.477   "/>
        <polygon fill="none" stroke="#000000" stroke-width="3" stroke-miterlimit="10" points="267.935,371.59 200.344,499.915     484.421,572.404   "/>
        <polygon fill="none" stroke="#000000" stroke-width="3" stroke-miterlimit="10" points="200.344,499.915 249.323,674.28     484.421,572.404   "/>
        <path fill="none" stroke="#000000" stroke-width="3" stroke-miterlimit="10" d="M304.424,1507.602    c30.465,15.014,60.989,23.192,101.7,13.147l61.645-116.684L304.424,1507.602z"/>
        <path fill="none" stroke="#000000" stroke-width="3" stroke-miterlimit="10" d="M234.629,1333.535l-3.537,51.509    c11.4,9.968,8.287,38.691,15.418,53.493c8.189,16.996,13.361,35.627,26.517,49.86c8.926,9.65,20.137,13.655,31.396,19.204    l163.345-103.537L234.629,1333.535z"/>
        <polygon fill="none" stroke="#000000" stroke-width="3" stroke-miterlimit="10" points="234.629,1333.535 467.768,1404.064     420.749,1262.026   "/>
        <polygon fill="none" stroke="#000000" stroke-width="3" stroke-miterlimit="10" points="366.872,1144.477 246.384,1152.313     420.749,1262.026   "/>
        <polygon fill="none" stroke="#000000" stroke-width="3" stroke-miterlimit="10" points="246.384,1152.313 234.629,1333.535     420.749,1262.026   "/>
        <path fill="none" stroke="#000000" stroke-width="3" stroke-miterlimit="10" d="M352.338,102.498    c-1.087,0.735-2.171,1.48-3.24,2.259l4.06,3.327L352.338,102.498z"/>
        <polygon fill="none" stroke="#000000" stroke-width="3" stroke-miterlimit="10" points="221.894,987.744 246.384,1152.313     366.872,1144.477   "/>
        <polygon fill="none" stroke="#000000" stroke-width="3" stroke-miterlimit="10" points="343.362,791.829 221.894,987.744     398.218,862.358   "/>
        <path fill="none" stroke="#000000" stroke-width="3" stroke-miterlimit="10" d="M349.098,104.757    c-22.602,16.487-43.834,45.537-48.783,75.639l52.843-72.312L349.098,104.757z"/>
        <path fill="none" stroke="#000000" stroke-width="3" stroke-miterlimit="10" d="M350.219,310.857l-49.937-70.459    c-5.98,4.018-15.793,3.089-23.83,3.435l-8.517,127.758L350.219,310.857z"/>
        <polygon fill="none" stroke="#000000" stroke-width="3" stroke-miterlimit="10" points="249.323,674.28 221.894,987.744     343.362,791.829   "/>
        <polygon fill="none" stroke="#000000" stroke-width="3" stroke-miterlimit="10" points="72.019,969.132 221.894,987.744     249.323,674.28   "/>
        <path fill="none" stroke="#000000" stroke-width="3" stroke-miterlimit="10" d="M199.351,1373.479    c17.439,7.379,26.009,6.553,31.741,11.564l3.537-51.509L199.351,1373.479z"/>
        <path fill="none" stroke="#000000" stroke-width="3" stroke-miterlimit="10" d="M246.384,1152.313l-138.783,85.956    c0.461,6.209,1.413,12.17,2.838,17.973l124.19,77.293L246.384,1152.313z"/>
        <path fill="none" stroke="#000000" stroke-width="3" stroke-miterlimit="10" d="M249.323,674.28L95.195,692.944    c-0.126,5.806,0.369,22.655,1.704,39.241c-3.076,1.734-6.132,3.517-9.159,5.339c-7.626,9.811-33.837,38.153-41.23,88.328    c-4.888,33.178,7.807,48.489,35.01,63.447c-8.323,10.078-16.078,21.381-22.382,33.463l12.881,46.371L249.323,674.28z"/>
        <path fill="none" stroke="#000000" stroke-width="3" stroke-miterlimit="10" d="M200.344,499.915l-73.107,67.604    c1.513,11.006,4.121,21.727,6.782,32.579l115.304,74.181L200.344,499.915z"/>
        <path fill="none" stroke="#000000" stroke-width="3" stroke-miterlimit="10" d="M276.452,243.833    c-59.924,2.577-51.613,82.197-58.073,114.922l49.556,12.836L276.452,243.833z"/>
        <path fill="none" stroke="#000000" stroke-width="3" stroke-miterlimit="10" d="M221.894,987.744l-122.281,90.983    c24.262,20.254,17.741,20.409,14.352,44.083l132.419,29.503L221.894,987.744z"/>
        <path fill="none" stroke="#000000" stroke-width="3" stroke-miterlimit="10" d="M267.935,371.59l-49.556-12.836    c-9.305,47.138-45.651,43.518-73.344,91.944l55.309,49.216L267.935,371.59z"/>
        <path fill="none" stroke="#000000" stroke-width="3" stroke-miterlimit="10" d="M134.019,600.098    c5.341,21.781,5.135,17.845-7.233,27.536c-19.231,15.077-31.153,45.078-31.591,65.31l154.127-18.664L134.019,600.098z"/>
        <path fill="none" stroke="#000000" stroke-width="3" stroke-miterlimit="10" d="M110.439,1256.242    c7.35,29.919,43.405,80.275,48.859,86.738c12.788,15.152,23.793,23.62,40.052,30.5l35.278-39.945L110.439,1256.242z"/>
        <path fill="none" stroke="#000000" stroke-width="3" stroke-miterlimit="10" d="M113.965,1122.811    c-2.094,14.623,6.139,20.867,6.934,31.738c0.549,7.454-5.789,18.7-7.19,28.917c-2.163,15.682-7.903,30.627-6.108,54.804    l138.783-85.956L113.965,1122.811z"/>
        <path fill="none" stroke="#000000" stroke-width="3" stroke-miterlimit="10" d="M72.019,969.132l-7.702,73.94    c6.344,8.215,19.153,22.18,35.296,35.655l122.281-90.983L72.019,969.132z"/>
        <path fill="none" stroke="#000000" stroke-width="3" stroke-miterlimit="10" d="M145.035,450.699    c-19.976,34.932-22.992,79.033-17.798,116.82l73.107-67.604L145.035,450.699z"/>
        <path fill="none" stroke="#000000" stroke-width="3" stroke-miterlimit="10" d="M78.73,922.761    c-7.053,13.516-12.274,28.009-14.42,42.871l27.301,3.5L78.73,922.761z"/>
        <path fill="none" stroke="#000000" stroke-width="3" stroke-miterlimit="10" d="M63.238,981.602    c0.284,20.778,6.712,43.394,20.671,61.47l7.702-73.94L63.238,981.602z"/>
        <path fill="none" stroke="#000000" stroke-width="3" stroke-miterlimit="10" d="M64.31,965.632    c-0.763,5.287-1.146,10.618-1.072,15.97l28.373-12.47L64.31,965.632z"/>
    </g>
    <g>
        <circle cx="977.676" cy="60.772" r="17.143"/>
        <circle cx="978.097" cy="60.625" r="17.143"/>
        <circle cx="1027.694" cy="1612.714" r="17.143"/>
        <circle cx="1000.003" cy="1612.714" r="17.143"/>
        <circle cx="1508.876" cy="572.741" r="17.143"/>
        <circle cx="1493.12" cy="452.913" r="17.143"/>
        <circle cx="1379.754" cy="516.568" r="17.143"/>
        <circle cx="1445.435" cy="401.464" r="17.143"/>
        <circle cx="1493.12" cy="452.913" r="17.143"/>
        <circle cx="1508.876" cy="572.741" r="17.143"/>
        <circle cx="1499.851" cy="613.336" r="17.143"/>
        <circle cx="1453.223" cy="1227.741" r="17.143"/>
        <circle cx="1528.784" cy="1243.648" r="17.143"/>
        <circle cx="1503.797" cy="1304.041" r="17.143"/>
        <circle cx="1428.193" cy="1377.098" r="17.143"/>
        <circle cx="1407.239" cy="1383.959" r="17.143"/>
        <circle cx="1453.223" cy="1227.741" r="17.143"/>
        <circle cx="1518.943" cy="1144.015" r="17.143"/>
        <circle cx="1516.022" cy="1154.548" r="17.143"/>
        <circle cx="1528.784" cy="1243.648" r="17.143"/>
        <circle cx="1387.591" cy="845.706" r="17.143"/>
        <circle cx="1513.494" cy="630.42" r="17.143"/>
        <circle cx="1518.608" cy="635.359" r="17.143"/>
        <circle cx="1541.279" cy="711.8" r="17.143"/>
        <circle cx="1540.022" cy="732.184" r="17.143"/>
        <circle cx="1548.851" cy="737.333" r="17.143"/>
        <circle cx="1585.993" cy="862.567" r="17.143"/>
        <circle cx="1570.38" cy="879.815" r="17.143"/>
        <circle cx="1585.993" cy="862.567" r="17.143"/>
        <circle cx="1548.851" cy="737.333" r="17.143"/>
        <circle cx="1549.171" cy="737.523" r="17.143"/>
        <circle cx="1573.504" cy="772.983" r="17.143"/>
        <circle cx="1541.279" cy="711.8" r="17.143"/>
        <circle cx="1518.608" cy="635.359" r="17.143"/>
        <circle cx="1532.352" cy="657.335" r="17.143"/>
        <circle cx="1367.999" cy="720.32" r="17.143"/>
        <circle cx="1511.743" cy="628.933" r="17.143"/>
        <circle cx="1513.494" cy="630.42" r="17.143"/>
        <circle cx="1387.591" cy="845.706" r="17.143"/>
        <circle cx="1387.591" cy="845.706" r="17.143"/>
        <circle cx="1570.38" cy="879.815" r="17.143"/>
        <circle cx="1555.401" cy="889.298" r="17.143"/>
        <circle cx="1580.727" cy="1030.681" r="17.143"/>
        <circle cx="1407.188" cy="281.643" r="17.143"/>
        <circle cx="1363.506" cy="244.048" r="17.143"/>
        <circle cx="1344.49" cy="1132.722" r="17.143"/>
        <circle cx="1559.059" cy="1058.416" r="17.143"/>
        <circle cx="1520.371" cy="1097.057" r="17.143"/>
        <circle cx="1523.222" cy="1130.754" r="17.143"/>
        <circle cx="1518.943" cy="1144.015" r="17.143"/>
        <circle cx="1453.223" cy="1227.741" r="17.143"/>
        <circle cx="1387.591" cy="845.706" r="17.143"/>
        <circle cx="1580.727" cy="1030.681" r="17.143"/>
        <circle cx="1559.059" cy="1058.416" r="17.143"/>
        <circle cx="1344.49" cy="1132.722" r="17.143"/>
        <circle cx="1379.754" cy="516.568" r="17.143"/>
        <circle cx="1499.851" cy="613.336" r="17.143"/>
        <circle cx="1511.743" cy="628.933" r="17.143"/>
        <circle cx="1367.999" cy="720.32" r="17.143"/>
        <circle cx="1337.204" cy="201.253" r="17.143"/>
        <circle cx="1279.997" cy="99.552" r="17.143"/>
        <circle cx="1339.703" cy="1504.17" r="17.143"/>
        <circle cx="1371.006" cy="1479.212" r="17.143"/>
        <circle cx="1272.001" cy="447.018" r="17.143"/>
        <circle cx="1422.04" cy="371.643" r="17.143"/>
        <circle cx="1445.435" cy="401.464" r="17.143"/>
        <circle cx="1379.754" cy="516.568" r="17.143"/>
        <circle cx="1272.001" cy="447.018" r="17.143"/>
        <circle cx="1357.737" cy="243.755" r="17.143"/>
        <circle cx="1363.506" cy="244.048" r="17.143"/>
        <circle cx="1407.188" cy="281.643" r="17.143"/>
        <circle cx="1422.04" cy="371.643" r="17.143"/>
        <circle cx="1278.858" cy="1496.145" r="17.143"/>
        <circle cx="1375.112" cy="1472.31" r="17.143"/>
        <circle cx="1371.006" cy="1479.212" r="17.143"/>
        <circle cx="1265.445" cy="1524.841" r="17.143"/>
        <circle cx="1179.921" cy="946.602" r="17.143"/>
        <circle cx="1387.591" cy="845.706" r="17.143"/>
        <circle cx="1344.49" cy="1132.722" r="17.143"/>
        <circle cx="1453.223" cy="1227.741" r="17.143"/>
        <circle cx="1407.239" cy="1383.959" r="17.143"/>
        <circle cx="1390.411" cy="1438.537" r="17.143"/>
        <circle cx="1377.916" cy="1466.814" r="17.143"/>
        <circle cx="1149.554" cy="1234.598" r="17.143"/>
        <circle cx="1149.554" cy="1234.598" r="17.143"/>
        <circle cx="1344.49" cy="1132.722" r="17.143"/>
        <circle cx="1453.223" cy="1227.741" r="17.143"/>
        <circle cx="1149.554" cy="1234.598" r="17.143"/>
        <circle cx="1377.916" cy="1466.814" r="17.143"/>
        <circle cx="1375.112" cy="1472.31" r="17.143"/>
        <circle cx="1278.858" cy="1496.145" r="17.143"/>
        <circle cx="1159.349" cy="486.201" r="17.143"/>
        <circle cx="1379.754" cy="516.568" r="17.143"/>
        <circle cx="1367.999" cy="720.32" r="17.143"/>
        <circle cx="1159.349" cy="486.201" r="17.143"/>
        <circle cx="1272.001" cy="447.018" r="17.143"/>
        <circle cx="1379.754" cy="516.568" r="17.143"/>
        <circle cx="1180.9" cy="808.482" r="17.143"/>
        <circle cx="1367.999" cy="720.32" r="17.143"/>
        <circle cx="1387.591" cy="845.706" r="17.143"/>
        <circle cx="1180.9" cy="808.482" r="17.143"/>
        <circle cx="1387.591" cy="845.706" r="17.143"/>
        <circle cx="1179.921" cy="946.602" r="17.143"/>
        <circle cx="1159.349" cy="486.201" r="17.143"/>
        <circle cx="1367.999" cy="720.32" r="17.143"/>
        <circle cx="1180.9" cy="808.482" r="17.143"/>
        <circle cx="1278.858" cy="1496.145" r="17.143"/>
        <circle cx="1112.33" cy="1448.145" r="17.143"/>
        <circle cx="1149.554" cy="1234.598" r="17.143"/>
        <circle cx="1156.411" cy="1169.946" r="17.143"/>
        <circle cx="1344.49" cy="1132.722" r="17.143"/>
        <circle cx="1149.554" cy="1234.598" r="17.143"/>
        <circle cx="1106.452" cy="374.529" r="17.143"/>
        <circle cx="1352.84" cy="243.695" r="17.143"/>
        <circle cx="1357.737" cy="243.755" r="17.143"/>
        <circle cx="1272.001" cy="447.018" r="17.143"/>
        <circle cx="1179.921" cy="946.602" r="17.143"/>
        <circle cx="1344.49" cy="1132.722" r="17.143"/>
        <circle cx="1156.411" cy="1169.946" r="17.143"/>
        <circle cx="1044.739" cy="244.245" r="17.143"/>
        <circle cx="1279.691" cy="99.359" r="17.143"/>
        <circle cx="1279.997" cy="99.552" r="17.143"/>
        <circle cx="1337.204" cy="201.253" r="17.143"/>
        <circle cx="1336.954" cy="240.604" r="17.143"/>
        <circle cx="1044.739" cy="244.245" r="17.143"/>
        <circle cx="1336.954" cy="240.604" r="17.143"/>
        <circle cx="1352.84" cy="243.695" r="17.143"/>
        <circle cx="1106.452" cy="374.529" r="17.143"/>
        <circle cx="1156.411" cy="1169.946" r="17.143"/>
        <circle cx="1120.166" cy="1150.354" r="17.143"/>
        <circle cx="1179.921" cy="946.602" r="17.143"/>
        <circle cx="1180.9" cy="808.482" r="17.143"/>
        <circle cx="1067.269" cy="496.976" r="17.143"/>
        <circle cx="1159.349" cy="486.201" r="17.143"/>
        <circle cx="1044.739" cy="244.245" r="17.143"/>
        <circle cx="1091.767" cy="75.293" r="17.143"/>
        <circle cx="1118.735" cy="88.102" r="17.143"/>
        <circle cx="1145.311" cy="109.526" r="17.143"/>
        <circle cx="1180.36" cy="93.706" r="17.143"/>
        <circle cx="1221.334" cy="84.8" r="17.143"/>
        <circle cx="1279.304" cy="99.136" r="17.143"/>
        <circle cx="1279.691" cy="99.359" r="17.143"/>
        <circle cx="1279.304" cy="99.136" r="17.143"/>
        <circle cx="1221.334" cy="84.8" r="17.143"/>
        <circle cx="1159.349" cy="486.201" r="17.143"/>
        <circle cx="1106.452" cy="374.529" r="17.143"/>
        <circle cx="1272.001" cy="447.018" r="17.143"/>
        <circle cx="1278.858" cy="1496.145" r="17.143"/>
        <circle cx="1265.445" cy="1524.841" r="17.143"/>
        <circle cx="1177.831" cy="1520.867" r="17.143"/>
        <circle cx="1112.33" cy="1448.145" r="17.143"/>
        <circle cx="1180.9" cy="808.482" r="17.143"/>
        <circle cx="934.047" cy="566.526" r="17.143"/>
        <circle cx="1067.269" cy="496.976" r="17.143"/>
        <circle cx="1180.9" cy="808.482" r="17.143"/>
        <circle cx="970.291" cy="813.38" r="17.143"/>
        <circle cx="934.047" cy="566.526" r="17.143"/>
        <circle cx="1112.33" cy="1448.145" r="17.143"/>
        <circle cx="1177.831" cy="1520.867" r="17.143"/>
        <circle cx="1165.794" cy="1534.144" r="17.143"/>
        <circle cx="1112.985" cy="1584.103" r="17.143"/>
        <circle cx="1056.526" cy="1608.404" r="17.143"/>
        <circle cx="1179.921" cy="946.602" r="17.143"/>
        <circle cx="987.924" cy="852.563" r="17.143"/>
        <circle cx="1180.9" cy="808.482" r="17.143"/>
        <circle cx="1149.554" cy="1234.598" r="17.143"/>
        <circle cx="1112.33" cy="1448.145" r="17.143"/>
        <circle cx="982.046" cy="1235.577" r="17.143"/>
        <circle cx="1179.921" cy="946.602" r="17.143"/>
        <circle cx="1120.166" cy="1150.354" r="17.143"/>
        <circle cx="987.924" cy="852.563" r="17.143"/>
        <circle cx="1180.9" cy="808.482" r="17.143"/>
        <circle cx="987.924" cy="852.563" r="17.143"/>
        <circle cx="970.291" cy="813.38" r="17.143"/>
        <circle cx="1120.166" cy="1150.354" r="17.143"/>
        <circle cx="869.526" cy="1169.634" r="17.143"/>
        <circle cx="870.04" cy="1158.116" r="17.143"/>
        <circle cx="987.924" cy="852.563" r="17.143"/>
        <circle cx="1149.554" cy="1234.598" r="17.143"/>
        <circle cx="1120.166" cy="1150.354" r="17.143"/>
        <circle cx="1156.411" cy="1169.946" r="17.143"/>
        <circle cx="1159.349" cy="486.201" r="17.143"/>
        <circle cx="1067.269" cy="496.976" r="17.143"/>
        <circle cx="1106.452" cy="374.529" r="17.143"/>
        <circle cx="982.046" cy="1235.577" r="17.143"/>
        <circle cx="1112.33" cy="1448.145" r="17.143"/>
        <circle cx="914.455" cy="1303.168" r="17.143"/>
        <circle cx="982.674" cy="1610.194" r="17.143"/>
        <circle cx="909.557" cy="1531.409" r="17.143"/>
        <circle cx="1112.33" cy="1448.145" r="17.143"/>
        <circle cx="1056.526" cy="1608.404" r="17.143"/>
        <circle cx="1149.554" cy="1234.598" r="17.143"/>
        <circle cx="982.046" cy="1235.577" r="17.143"/>
        <circle cx="1120.166" cy="1150.354" r="17.143"/>
        <circle cx="970.291" cy="813.38" r="17.143"/>
        <circle cx="885.128" cy="721.192" r="17.143"/>
        <circle cx="926.297" cy="613.557" r="17.143"/>
        <circle cx="916.612" cy="609.241" r="17.143"/>
        <circle cx="934.047" cy="566.526" r="17.143"/>
        <circle cx="1030.527" cy="53.982" r="17.143"/>
        <circle cx="953.856" cy="53.725" r="17.143"/>
        <circle cx="990.998" cy="46.999" r="17.143"/>
        <circle cx="1053.072" cy="66.912" r="17.143"/>
        <circle cx="892.83" cy="112.595" r="17.143"/>
        <circle cx="953.856" cy="53.725" r="17.143"/>
        <circle cx="1030.527" cy="53.982" r="17.143"/>
        <circle cx="978.097" cy="60.625" r="17.143"/>
        <circle cx="977.676" cy="60.772" r="17.143"/>
        <circle cx="1044.739" cy="244.245" r="17.143"/>
        <circle cx="890.715" cy="130.056" r="17.143"/>
        <circle cx="892.83" cy="112.595" r="17.143"/>
        <circle cx="1053.072" cy="66.912" r="17.143"/>
        <circle cx="1091.767" cy="75.293" r="17.143"/>
        <circle cx="982.046" cy="1235.577" r="17.143"/>
        <circle cx="869.414" cy="1172.163" r="17.143"/>
        <circle cx="869.526" cy="1169.634" r="17.143"/>
        <circle cx="1120.166" cy="1150.354" r="17.143"/>
        <circle cx="914.455" cy="1303.168" r="17.143"/>
        <circle cx="1112.33" cy="1448.145" r="17.143"/>
        <circle cx="909.557" cy="1531.409" r="17.143"/>
        <circle cx="1067.269" cy="496.976" r="17.143"/>
        <circle cx="893.834" cy="417.511" r="17.143"/>
        <circle cx="892.61" cy="397.012" r="17.143"/>
        <circle cx="882.636" cy="373.819" r="17.143"/>
        <circle cx="1106.452" cy="374.529" r="17.143"/>
        <circle cx="1106.452" cy="374.529" r="17.143"/>
        <circle cx="882.636" cy="373.819" r="17.143"/>
        <circle cx="906.598" cy="338.894" r="17.143"/>
        <circle cx="889.502" cy="325.56" r="17.143"/>
        <circle cx="1044.739" cy="244.245" r="17.143"/>
        <circle cx="987.924" cy="852.563" r="17.143"/>
        <circle cx="870.04" cy="1158.116" r="17.143"/>
        <circle cx="892.267" cy="1047.04" r="17.143"/>
        <circle cx="888.535" cy="1023.099" r="17.143"/>
        <circle cx="911.163" cy="918.108" r="17.143"/>
        <circle cx="881.798" cy="857.791" r="17.143"/>
        <circle cx="934.047" cy="566.526" r="17.143"/>
        <circle cx="881.845" cy="492.542" r="17.143"/>
        <circle cx="893.834" cy="417.511" r="17.143"/>
        <circle cx="1067.269" cy="496.976" r="17.143"/>
        <circle cx="909.557" cy="1531.409" r="17.143"/>
        <circle cx="982.674" cy="1610.194" r="17.143"/>
        <circle cx="947.172" cy="1587.492" r="17.143"/>
        <circle cx="936.779" cy="1588.873" r="17.143"/>
        <circle cx="901.448" cy="1567.904" r="17.143"/>
        <circle cx="1044.739" cy="244.245" r="17.143"/>
        <circle cx="889.502" cy="325.56" r="17.143"/>
        <circle cx="873.41" cy="303.1" r="17.143"/>
        <circle cx="903.787" cy="204.427" r="17.143"/>
        <circle cx="896.822" cy="179.272" r="17.143"/>
        <circle cx="890.715" cy="130.056" r="17.143"/>
        <circle cx="987.924" cy="852.563" r="17.143"/>
        <circle cx="881.798" cy="857.791" r="17.143"/>
        <circle cx="882.077" cy="837.221" r="17.143"/>
        <circle cx="970.291" cy="813.38" r="17.143"/>
        <circle cx="914.455" cy="1303.168" r="17.143"/>
        <circle cx="869.149" cy="1179.934" r="17.143"/>
        <circle cx="869.414" cy="1172.163" r="17.143"/>
        <circle cx="982.046" cy="1235.577" r="17.143"/>
        <circle cx="970.291" cy="813.38" r="17.143"/>
        <circle cx="882.077" cy="837.221" r="17.143"/>
        <circle cx="885.128" cy="721.192" r="17.143"/>
        <circle cx="909.557" cy="1531.409" r="17.143"/>
        <circle cx="880.004" cy="1526.623" r="17.143"/>
        <circle cx="881.815" cy="1478.484" r="17.143"/>
        <circle cx="882.941" cy="1467.073" r="17.143"/>
        <circle cx="889.563" cy="1459.882" r="17.143"/>
        <circle cx="867.326" cy="1333.663" r="17.143"/>
        <circle cx="914.455" cy="1303.168" r="17.143"/>
        <circle cx="934.047" cy="566.526" r="17.143"/>
        <circle cx="916.612" cy="609.241" r="17.143"/>
        <circle cx="890.29" cy="570.795" r="17.143"/>
        <circle cx="934.047" cy="566.526" r="17.143"/>
        <circle cx="890.29" cy="570.795" r="17.143"/>
        <circle cx="881.845" cy="492.542" r="17.143"/>
        <circle cx="909.557" cy="1531.409" r="17.143"/>
        <circle cx="901.448" cy="1567.904" r="17.143"/>
        <circle cx="885.793" cy="1545.628" r="17.143"/>
        <circle cx="914.455" cy="1303.168" r="17.143"/>
        <circle cx="886.068" cy="1281.583" r="17.143"/>
        <circle cx="869.149" cy="1179.934" r="17.143"/>
        <circle cx="914.455" cy="1303.168" r="17.143"/>
        <circle cx="869.211" cy="1313.376" r="17.143"/>
        <circle cx="886.068" cy="1281.583" r="17.143"/>
        <circle cx="914.455" cy="1303.168" r="17.143"/>
        <circle cx="867.326" cy="1333.663" r="17.143"/>
        <circle cx="869.211" cy="1313.376" r="17.143"/>
        <circle cx="909.557" cy="1531.409" r="17.143"/>
        <circle cx="885.793" cy="1545.628" r="17.143"/>
        <circle cx="880.004" cy="1526.623" r="17.143"/>
        <circle cx="658.814" cy="60.625" r="17.143"/>
        <circle cx="659.284" cy="60.792" r="17.143"/>
        <circle cx="636.913" cy="1612.714" r="17.143"/>
        <circle cx="609.222" cy="1612.714" r="17.143"/>
        <circle cx="719.52" cy="373.55" r="17.143"/>
        <circle cx="719.52" cy="373.55" r="17.143"/>
        <circle cx="749.386" cy="357.905" r="17.143"/>
        <circle cx="710.703" cy="862.358" r="17.143"/>
        <circle cx="754.992" cy="860.177" r="17.143"/>
        <circle cx="725.758" cy="918.118" r="17.143"/>
        <circle cx="750.043" cy="1020.724" r="17.143"/>
        <circle cx="719.52" cy="373.55" r="17.143"/>
        <circle cx="744.311" cy="397.012" r="17.143"/>
        <circle cx="740.394" cy="403.135" r="17.143"/>
        <circle cx="719.52" cy="373.55" r="17.143"/>
        <circle cx="757.797" cy="245.467" r="17.143"/>
        <circle cx="730.323" cy="338.894" r="17.143"/>
        <circle cx="675.439" cy="216.817" r="17.143"/>
        <circle cx="745.046" cy="159.66" r="17.143"/>
        <circle cx="740.09" cy="179.272" r="17.143"/>
        <circle cx="757.797" cy="245.467" r="17.143"/>
        <circle cx="719.52" cy="373.55" r="17.143"/>
        <circle cx="710.703" cy="862.358" r="17.143"/>
        <circle cx="755.231" cy="850.324" r="17.143"/>
        <circle cx="754.992" cy="860.177" r="17.143"/>
        <circle cx="710.703" cy="862.358" r="17.143"/>
        <circle cx="754.238" cy="785.678" r="17.143"/>
        <circle cx="755.231" cy="850.324" r="17.143"/>
        <circle cx="710.703" cy="862.358" r="17.143"/>
        <circle cx="750.043" cy="1020.724" r="17.143"/>
        <circle cx="744.645" cy="1047.04" r="17.143"/>
        <circle cx="767.245" cy="1166.496" r="17.143"/>
        <circle cx="623.521" cy="1141.538" r="17.143"/>
        <circle cx="552.991" cy="1486.349" r="17.143"/>
        <circle cx="769.33" cy="1346.365" r="17.143"/>
        <circle cx="747.348" cy="1459.882" r="17.143"/>
        <circle cx="753.98" cy="1467.082" r="17.143"/>
        <circle cx="755.106" cy="1478.484" r="17.143"/>
        <circle cx="757.893" cy="1519.537" r="17.143"/>
        <circle cx="614.705" cy="590.036" r="17.143"/>
        <circle cx="743.954" cy="577.426" r="17.143"/>
        <circle cx="710.614" cy="613.557" r="17.143"/>
        <circle cx="725.406" cy="644.914" r="17.143"/>
        <circle cx="735.65" cy="670.016" r="17.143"/>
        <circle cx="719.52" cy="373.55" r="17.143"/>
        <circle cx="740.394" cy="403.135" r="17.143"/>
        <circle cx="752.609" cy="455.787" r="17.143"/>
        <circle cx="754.431" cy="534.917" r="17.143"/>
        <circle cx="743.954" cy="577.426" r="17.143"/>
        <circle cx="614.705" cy="590.036" r="17.143"/>
        <circle cx="623.521" cy="1141.538" r="17.143"/>
        <circle cx="767.245" cy="1166.496" r="17.143"/>
        <circle cx="754.841" cy="1241.389" r="17.143"/>
        <circle cx="623.521" cy="1141.538" r="17.143"/>
        <circle cx="754.841" cy="1241.389" r="17.143"/>
        <circle cx="745.654" cy="1264.78" r="17.143"/>
        <circle cx="768.574" cy="1318.4" r="17.143"/>
        <circle cx="514.788" cy="1375.657" r="17.143"/>
        <circle cx="514.788" cy="1375.657" r="17.143"/>
        <circle cx="768.574" cy="1318.4" r="17.143"/>
        <circle cx="769.33" cy="1346.365" r="17.143"/>
        <circle cx="552.991" cy="1486.349" r="17.143"/>
        <circle cx="636.913" cy="1612.714" r="17.143"/>
        <circle cx="582.155" cy="1608.838" r="17.143"/>
        <circle cx="552.991" cy="1486.349" r="17.143"/>
        <circle cx="757.893" cy="1519.537" r="17.143"/>
        <circle cx="700.133" cy="1588.873" r="17.143"/>
        <circle cx="689.739" cy="1587.492" r="17.143"/>
        <circle cx="610.786" cy="783.013" r="17.143"/>
        <circle cx="752.563" cy="727.794" r="17.143"/>
        <circle cx="754.238" cy="785.678" r="17.143"/>
        <circle cx="710.703" cy="862.358" r="17.143"/>
        <circle cx="650.949" cy="369.631" r="17.143"/>
        <circle cx="719.52" cy="373.55" r="17.143"/>
        <circle cx="614.705" cy="590.036" r="17.143"/>
        <circle cx="675.439" cy="216.817" r="17.143"/>
        <circle cx="720.925" cy="73.493" r="17.143"/>
        <circle cx="745.046" cy="159.66" r="17.143"/>
        <circle cx="614.705" cy="590.036" r="17.143"/>
        <circle cx="735.65" cy="670.016" r="17.143"/>
        <circle cx="752.563" cy="727.794" r="17.143"/>
        <circle cx="610.786" cy="783.013" r="17.143"/>
        <circle cx="621.562" cy="848.644" r="17.143"/>
        <circle cx="710.703" cy="862.358" r="17.143"/>
        <circle cx="623.521" cy="1141.538" r="17.143"/>
        <circle cx="650.949" cy="369.631" r="17.143"/>
        <circle cx="675.439" cy="216.817" r="17.143"/>
        <circle cx="719.52" cy="373.55" r="17.143"/>
        <circle cx="621.562" cy="848.644" r="17.143"/>
        <circle cx="610.786" cy="783.013" r="17.143"/>
        <circle cx="710.703" cy="862.358" r="17.143"/>
        <circle cx="675.439" cy="216.817" r="17.143"/>
        <circle cx="642.1" cy="47.197" r="17.143"/>
        <circle cx="677.553" cy="49.879" r="17.143"/>
        <circle cx="720.925" cy="73.493" r="17.143"/>
        <circle cx="659.284" cy="60.792" r="17.143"/>
        <circle cx="658.814" cy="60.625" r="17.143"/>
        <circle cx="353.158" cy="108.084" r="17.143"/>
        <circle cx="383.344" cy="88.219" r="17.143"/>
        <circle cx="456.561" cy="93.706" r="17.143"/>
        <circle cx="491.6" cy="109.526" r="17.143"/>
        <circle cx="518.186" cy="88.102" r="17.143"/>
        <circle cx="577.95" cy="67.443" r="17.143"/>
        <circle cx="642.1" cy="47.197" r="17.143"/>
        <circle cx="675.439" cy="216.817" r="17.143"/>
        <circle cx="621.562" cy="848.644" r="17.143"/>
        <circle cx="623.521" cy="1141.538" r="17.143"/>
        <circle cx="398.218" cy="862.358" r="17.143"/>
        <circle cx="420.749" cy="1262.026" r="17.143"/>
        <circle cx="623.521" cy="1141.538" r="17.143"/>
        <circle cx="514.788" cy="1375.657" r="17.143"/>
        <circle cx="650.949" cy="369.631" r="17.143"/>
        <circle cx="614.705" cy="590.036" r="17.143"/>
        <circle cx="484.421" cy="572.404" r="17.143"/>
        <circle cx="650.949" cy="369.631" r="17.143"/>
        <circle cx="350.219" cy="310.857" r="17.143"/>
        <circle cx="675.439" cy="216.817" r="17.143"/>
        <circle cx="675.439" cy="216.817" r="17.143"/>
        <circle cx="350.219" cy="310.857" r="17.143"/>
        <circle cx="353.158" cy="108.084" r="17.143"/>
        <circle cx="484.421" cy="572.404" r="17.143"/>
        <circle cx="614.705" cy="590.036" r="17.143"/>
        <circle cx="610.786" cy="783.013" r="17.143"/>
        <circle cx="398.218" cy="862.358" r="17.143"/>
        <circle cx="623.521" cy="1141.538" r="17.143"/>
        <circle cx="366.872" cy="1144.477" r="17.143"/>
        <circle cx="484.421" cy="572.404" r="17.143"/>
        <circle cx="350.219" cy="310.857" r="17.143"/>
        <circle cx="650.949" cy="369.631" r="17.143"/>
        <circle cx="484.421" cy="572.404" r="17.143"/>
        <circle cx="610.786" cy="783.013" r="17.143"/>
        <circle cx="343.362" cy="791.829" r="17.143"/>
        <circle cx="353.158" cy="108.084" r="17.143"/>
        <circle cx="352.338" cy="102.498" r="17.143"/>
        <circle cx="383.344" cy="88.219" r="17.143"/>
        <circle cx="366.872" cy="1144.477" r="17.143"/>
        <circle cx="623.521" cy="1141.538" r="17.143"/>
        <circle cx="420.749" cy="1262.026" r="17.143"/>
        <circle cx="398.218" cy="862.358" r="17.143"/>
        <circle cx="610.786" cy="783.013" r="17.143"/>
        <circle cx="621.562" cy="848.644" r="17.143"/>
        <circle cx="552.991" cy="1486.349" r="17.143"/>
        <circle cx="582.155" cy="1608.838" r="17.143"/>
        <circle cx="523.926" cy="1584.103" r="17.143"/>
        <circle cx="474.266" cy="1536.986" r="17.143"/>
        <circle cx="343.362" cy="791.829" r="17.143"/>
        <circle cx="610.786" cy="783.013" r="17.143"/>
        <circle cx="398.218" cy="862.358" r="17.143"/>
        <circle cx="552.991" cy="1486.349" r="17.143"/>
        <circle cx="474.266" cy="1536.986" r="17.143"/>
        <circle cx="406.124" cy="1520.749" r="17.143"/>
        <circle cx="467.768" cy="1404.064" r="17.143"/>
        <circle cx="514.788" cy="1375.657" r="17.143"/>
        <circle cx="552.991" cy="1486.349" r="17.143"/>
        <circle cx="467.768" cy="1404.064" r="17.143"/>
        <circle cx="484.421" cy="572.404" r="17.143"/>
        <circle cx="267.935" cy="371.59" r="17.143"/>
        <circle cx="350.219" cy="310.857" r="17.143"/>
        <circle cx="343.362" cy="791.829" r="17.143"/>
        <circle cx="249.323" cy="674.28" r="17.143"/>
        <circle cx="484.421" cy="572.404" r="17.143"/>
        <circle cx="514.788" cy="1375.657" r="17.143"/>
        <circle cx="467.768" cy="1404.064" r="17.143"/>
        <circle cx="420.749" cy="1262.026" r="17.143"/>
        <circle cx="350.219" cy="310.857" r="17.143"/>
        <circle cx="300.282" cy="240.398" r="17.143"/>
        <circle cx="305.647" cy="230.229" r="17.143"/>
        <circle cx="300.315" cy="180.396" r="17.143"/>
        <circle cx="353.158" cy="108.084" r="17.143"/>
        <circle cx="366.872" cy="1144.477" r="17.143"/>
        <circle cx="221.894" cy="987.744" r="17.143"/>
        <circle cx="398.218" cy="862.358" r="17.143"/>
        <circle cx="484.421" cy="572.404" r="17.143"/>
        <circle cx="200.344" cy="499.915" r="17.143"/>
        <circle cx="267.935" cy="371.59" r="17.143"/>
        <circle cx="484.421" cy="572.404" r="17.143"/>
        <circle cx="249.323" cy="674.28" r="17.143"/>
        <circle cx="200.344" cy="499.915" r="17.143"/>
        <circle cx="467.768" cy="1404.064" r="17.143"/>
        <circle cx="406.124" cy="1520.749" r="17.143"/>
        <circle cx="304.424" cy="1507.602" r="17.143"/>
        <circle cx="467.768" cy="1404.064" r="17.143"/>
        <circle cx="304.424" cy="1507.602" r="17.143"/>
        <circle cx="273.027" cy="1488.398" r="17.143"/>
        <circle cx="246.51" cy="1438.537" r="17.143"/>
        <circle cx="231.092" cy="1385.044" r="17.143"/>
        <circle cx="234.629" cy="1333.535" r="17.143"/>
        <circle cx="420.749" cy="1262.026" r="17.143"/>
        <circle cx="467.768" cy="1404.064" r="17.143"/>
        <circle cx="234.629" cy="1333.535" r="17.143"/>
        <circle cx="420.749" cy="1262.026" r="17.143"/>
        <circle cx="246.384" cy="1152.313" r="17.143"/>
        <circle cx="366.872" cy="1144.477" r="17.143"/>
        <circle cx="420.749" cy="1262.026" r="17.143"/>
        <circle cx="234.629" cy="1333.535" r="17.143"/>
        <circle cx="246.384" cy="1152.313" r="17.143"/>
        <circle cx="353.158" cy="108.084" r="17.143"/>
        <circle cx="349.098" cy="104.757" r="17.143"/>
        <circle cx="352.338" cy="102.498" r="17.143"/>
        <circle cx="366.872" cy="1144.477" r="17.143"/>
        <circle cx="246.384" cy="1152.313" r="17.143"/>
        <circle cx="221.894" cy="987.744" r="17.143"/>
        <circle cx="398.218" cy="862.358" r="17.143"/>
        <circle cx="221.894" cy="987.744" r="17.143"/>
        <circle cx="343.362" cy="791.829" r="17.143"/>
        <circle cx="353.158" cy="108.084" r="17.143"/>
        <circle cx="300.315" cy="180.396" r="17.143"/>
        <circle cx="349.098" cy="104.757" r="17.143"/>
        <circle cx="267.935" cy="371.59" r="17.143"/>
        <circle cx="276.452" cy="243.833" r="17.143"/>
        <circle cx="300.282" cy="240.398" r="17.143"/>
        <circle cx="350.219" cy="310.857" r="17.143"/>
        <circle cx="343.362" cy="791.829" r="17.143"/>
        <circle cx="221.894" cy="987.744" r="17.143"/>
        <circle cx="249.323" cy="674.28" r="17.143"/>
        <circle cx="249.323" cy="674.28" r="17.143"/>
        <circle cx="221.894" cy="987.744" r="17.143"/>
        <circle cx="72.019" cy="969.132" r="17.143"/>
        <circle cx="234.629" cy="1333.535" r="17.143"/>
        <circle cx="231.092" cy="1385.044" r="17.143"/>
        <circle cx="199.351" cy="1373.479" r="17.143"/>
        <circle cx="234.629" cy="1333.535" r="17.143"/>
        <circle cx="110.439" cy="1256.242" r="17.143"/>
        <circle cx="107.601" cy="1238.269" r="17.143"/>
        <circle cx="246.384" cy="1152.313" r="17.143"/>
        <circle cx="72.019" cy="969.132" r="17.143"/>
        <circle cx="59.138" cy="922.761" r="17.143"/>
        <circle cx="81.52" cy="889.298" r="17.143"/>
        <circle cx="46.51" cy="825.851" r="17.143"/>
        <circle cx="87.74" cy="737.523" r="17.143"/>
        <circle cx="96.899" cy="732.184" r="17.143"/>
        <circle cx="95.195" cy="692.944" r="17.143"/>
        <circle cx="249.323" cy="674.28" r="17.143"/>
        <circle cx="249.323" cy="674.28" r="17.143"/>
        <circle cx="134.019" cy="600.098" r="17.143"/>
        <circle cx="127.237" cy="567.519" r="17.143"/>
        <circle cx="200.344" cy="499.915" r="17.143"/>
        <circle cx="267.935" cy="371.59" r="17.143"/>
        <circle cx="218.379" cy="358.755" r="17.143"/>
        <circle cx="276.452" cy="243.833" r="17.143"/>
        <circle cx="246.384" cy="1152.313" r="17.143"/>
        <circle cx="113.965" cy="1122.811" r="17.143"/>
        <circle cx="99.613" cy="1078.727" r="17.143"/>
        <circle cx="221.894" cy="987.744" r="17.143"/>
        <circle cx="200.344" cy="499.915" r="17.143"/>
        <circle cx="145.035" cy="450.699" r="17.143"/>
        <circle cx="218.379" cy="358.755" r="17.143"/>
        <circle cx="267.935" cy="371.59" r="17.143"/>
        <circle cx="249.323" cy="674.28" r="17.143"/>
        <circle cx="95.195" cy="692.944" r="17.143"/>
        <circle cx="126.786" cy="627.634" r="17.143"/>
        <circle cx="134.019" cy="600.098" r="17.143"/>
        <circle cx="234.629" cy="1333.535" r="17.143"/>
        <circle cx="199.351" cy="1373.479" r="17.143"/>
        <circle cx="159.298" cy="1342.98" r="17.143"/>
        <circle cx="110.439" cy="1256.242" r="17.143"/>
        <circle cx="246.384" cy="1152.313" r="17.143"/>
        <circle cx="107.601" cy="1238.269" r="17.143"/>
        <circle cx="113.709" cy="1183.465" r="17.143"/>
        <circle cx="120.899" cy="1154.548" r="17.143"/>
        <circle cx="113.965" cy="1122.811" r="17.143"/>
        <circle cx="221.894" cy="987.744" r="17.143"/>
        <circle cx="99.613" cy="1078.727" r="17.143"/>
        <circle cx="64.317" cy="1043.072" r="17.143"/>
        <circle cx="72.019" cy="969.132" r="17.143"/>
        <circle cx="200.344" cy="499.915" r="17.143"/>
        <circle cx="127.237" cy="567.519" r="17.143"/>
        <circle cx="145.035" cy="450.699" r="17.143"/>
        <circle cx="91.611" cy="969.132" r="17.143"/>
        <circle cx="64.31" cy="965.632" r="17.143"/>
        <circle cx="78.73" cy="922.761" r="17.143"/>
        <circle cx="91.611" cy="969.132" r="17.143"/>
        <circle cx="83.909" cy="1043.072" r="17.143"/>
        <circle cx="63.238" cy="981.602" r="17.143"/>
        <circle cx="91.611" cy="969.132" r="17.143"/>
        <circle cx="63.238" cy="981.602" r="17.143"/>
        <circle cx="64.31" cy="965.632" r="17.143"/>
        <path d="M1179.921,946.602"/>
    </g>
</g>
</svg>